<!-- This Source Code Form is subject to the terms of the Mozilla Public
   - License, v. 2.0. If a copy of the MPL was not distributed with this
   - file, You can obtain one at http://mozilla.org/MPL/2.0/. -->
<svg width="680" height="92" fill="none" xmlns="http://www.w3.org/2000/svg">
    <rect width="680" height="92" fill="#1A171C" />
    <path d="M679 0H0V92H679V0Z" fill="#26222A" />
    <rect x="21" width="174" height="44" fill="#1A171C" />
    <path fill-rule="evenodd" clip-rule="evenodd" d="M5 44C13.8366 44 21 36.8366 21 28V44H5Z" fill="#1A171C" />
    <path fill-rule="evenodd" clip-rule="evenodd" d="M211 44C202.163 44 195 36.8366 195 28V44H211Z" fill="#1A171C" />
    <rect x="114" y="52" width="487" height="32" rx="8" fill="#26222A" />
    <path d="M162.825 20H45.9971C44.8941 20 44 20.8954 44 22C44 23.1046 44.8941 24 45.9971 24H162.825C163.928 24 164.822 23.1046 164.822 22C164.822 20.8954 163.928 20 162.825 20Z" fill="#D9D6DC" />
    <path d="M332.575 20H215.747C214.644 20 213.75 20.8954 213.75 22C213.75 23.1046 214.644 24 215.747 24H332.575C333.678 24 334.572 23.1046 334.572 22C334.572 20.8954 333.678 20 332.575 20Z" fill="#D9D6DC" />
    <path d="M679 44H0V92H679V44Z" fill="#1A171C" />
    <path d="M23.9647 74.25C27.4114 74.25 30.2055 71.4518 30.2055 68C30.2055 64.5482 27.4114 61.75 23.9647 61.75C20.518 61.75 17.7239 64.5482 17.7239 68C17.7239 71.4518 20.518 74.25 23.9647 74.25Z" stroke="#D9D6DC" stroke-width="1.5" />
    <path d="M59.9117 74.25C63.3584 74.25 66.1525 71.4518 66.1525 68C66.1525 64.5482 63.3584 61.75 59.9117 61.75C56.465 61.75 53.6709 64.5482 53.6709 68C53.6709 71.4518 56.465 74.25 59.9117 74.25Z" stroke="#D9D6DC" stroke-width="1.5" />
    <path d="M662.025 73.75H648.046" stroke="#D9D6DC" stroke-width="1.5" />
    <path d="M662.025 67.75H648.046" stroke="#D9D6DC" stroke-width="1.5" />
    <path d="M597.12 52H117.826C115.621 52 113.832 53.7909 113.832 56V80C113.832 82.2091 115.621 84 117.826 84H597.12C599.326 84 601.115 82.2091 601.115 80V56C601.115 53.7909 599.326 52 597.12 52Z" fill="#1A171C" />
    <path d="M129.809 74.25C133.256 74.25 136.05 71.4518 136.05 68C136.05 64.5482 133.256 61.75 129.809 61.75C126.362 61.75 123.568 64.5482 123.568 68C123.568 71.4518 126.362 74.25 129.809 74.25Z" stroke="#D9D6DC" stroke-width="1.5" />
    <path d="M451.335 66H147.782C146.68 66 145.785 66.8954 145.785 68C145.785 69.1046 146.68 70 147.782 70H451.335C452.438 70 453.332 69.1046 453.332 68C453.332 66.8954 452.438 66 451.335 66Z" fill="#D9D6DC" />
</svg>