<?xml version="1.0" encoding="UTF-8" standalone="no"?>
<!DOCTYPE svg PUBLIC "-//W3C//DTD SVG 1.1//EN" "http://www.w3.org/Graphics/SVG/1.1/DTD/svg11.dtd">
<svg width="100%" height="100%" viewBox="0 0 1152 768" version="1.1" xmlns="http://www.w3.org/2000/svg" xmlns:xlink="http://www.w3.org/1999/xlink" xml:space="preserve" xmlns:serif="http://www.serif.com/" style="fill-rule:evenodd;clip-rule:evenodd;stroke-linejoin:round;stroke-miterlimit:2;">
    <g id="Artboard1" transform="matrix(1.152,0,0,0.768,0,0)">
        <rect x="0" y="0" width="1000" height="1000" style="fill:none;"/>
        <clipPath id="_clip1">
            <rect x="0" y="0" width="1000" height="1000"/>
        </clipPath>
        <g clip-path="url(#_clip1)">
            <g transform="matrix(0.877623,0,0,1.32098,-11.0217,-14.5154)">
                <rect x="12.559" y="10.988" width="1139.44" height="757.012" style="fill:rgb(42,52,60);"/>
            </g>
            <g transform="matrix(0.867265,0,0,1.24935,1.36373,29.6589)">
                <path d="M337.348,510.44C337.348,505.331 333.364,501.183 328.458,501.183L89.18,501.183C84.274,501.183 80.291,505.331 80.291,510.44L80.291,551.281C80.291,556.39 84.274,560.537 89.18,560.537L328.458,560.537C333.364,560.537 337.348,556.39 337.348,551.281L337.348,510.44Z" style="fill:rgb(228,233,236);"/>
            </g>
            <g transform="matrix(0.868056,0,0,1.30208,0,0)">
                <g transform="matrix(84.0692,0,0,84.0692,93.181,157.499)">
                    <path d="M0.672,-0.727L0.672,-0L0.539,-0L0.222,-0.458L0.217,-0.458L0.217,-0L0.063,-0L0.063,-0.727L0.198,-0.727L0.512,-0.27L0.518,-0.27L0.518,-0.727L0.672,-0.727Z" style="fill:white;fill-rule:nonzero;"/>
                </g>
                <g transform="matrix(84.0692,0,0,84.0692,154.979,157.499)">
                    <path d="M0.06,-0L0.06,-0.545L0.212,-0.545L0.212,-0L0.06,-0ZM0.137,-0.616C0.114,-0.616 0.095,-0.623 0.079,-0.638C0.063,-0.653 0.055,-0.671 0.055,-0.692C0.055,-0.713 0.063,-0.731 0.079,-0.746C0.095,-0.761 0.114,-0.769 0.136,-0.769C0.159,-0.769 0.178,-0.761 0.194,-0.746C0.21,-0.731 0.218,-0.713 0.218,-0.692C0.218,-0.671 0.21,-0.653 0.194,-0.638C0.178,-0.623 0.159,-0.616 0.137,-0.616Z" style="fill:white;fill-rule:nonzero;"/>
                </g>
                <g transform="matrix(84.0692,0,0,84.0692,177.847,157.499)">
                    <path d="M0.306,0.212C0.257,0.212 0.215,0.206 0.18,0.192C0.145,0.179 0.118,0.161 0.097,0.139C0.076,0.116 0.063,0.091 0.057,0.064L0.197,0.045C0.201,0.055 0.208,0.064 0.217,0.073C0.226,0.082 0.238,0.089 0.254,0.095C0.269,0.101 0.288,0.104 0.31,0.104C0.343,0.104 0.37,0.096 0.391,0.08C0.413,0.065 0.423,0.039 0.423,0.003L0.423,-0.097L0.417,-0.097C0.41,-0.081 0.4,-0.067 0.387,-0.054C0.374,-0.04 0.357,-0.029 0.336,-0.021C0.315,-0.012 0.29,-0.008 0.261,-0.008C0.22,-0.008 0.183,-0.017 0.15,-0.036C0.116,-0.055 0.09,-0.085 0.07,-0.124C0.05,-0.164 0.04,-0.213 0.04,-0.274C0.04,-0.336 0.05,-0.387 0.07,-0.429C0.09,-0.47 0.117,-0.501 0.151,-0.522C0.184,-0.542 0.221,-0.553 0.261,-0.553C0.292,-0.553 0.317,-0.547 0.338,-0.537C0.358,-0.527 0.375,-0.514 0.388,-0.499C0.4,-0.483 0.41,-0.469 0.417,-0.454L0.423,-0.454L0.423,-0.545L0.573,-0.545L0.573,0.005C0.573,0.051 0.561,0.089 0.539,0.119C0.516,0.15 0.485,0.173 0.444,0.189C0.404,0.205 0.358,0.212 0.306,0.212ZM0.309,-0.121C0.334,-0.121 0.354,-0.128 0.371,-0.14C0.388,-0.152 0.401,-0.169 0.41,-0.192C0.419,-0.215 0.424,-0.243 0.424,-0.275C0.424,-0.306 0.42,-0.334 0.411,-0.358C0.402,-0.381 0.388,-0.4 0.371,-0.413C0.354,-0.426 0.334,-0.432 0.309,-0.432C0.284,-0.432 0.263,-0.425 0.246,-0.412C0.229,-0.399 0.217,-0.38 0.208,-0.357C0.199,-0.333 0.195,-0.306 0.195,-0.275C0.195,-0.243 0.199,-0.216 0.208,-0.193C0.217,-0.17 0.23,-0.153 0.247,-0.14C0.264,-0.128 0.284,-0.121 0.309,-0.121Z" style="fill:white;fill-rule:nonzero;"/>
                </g>
                <g transform="matrix(84.0692,0,0,84.0692,231.077,157.499)">
                    <path d="M0.212,-0.315L0.212,-0L0.06,-0L0.06,-0.727L0.207,-0.727L0.207,-0.449L0.214,-0.449C0.226,-0.481 0.246,-0.507 0.273,-0.525C0.301,-0.543 0.335,-0.553 0.377,-0.553C0.415,-0.553 0.448,-0.544 0.476,-0.528C0.504,-0.511 0.526,-0.488 0.542,-0.457C0.558,-0.427 0.566,-0.39 0.565,-0.347L0.565,-0L0.414,-0L0.414,-0.32C0.414,-0.354 0.406,-0.38 0.389,-0.399C0.372,-0.417 0.348,-0.427 0.317,-0.427C0.296,-0.427 0.278,-0.422 0.262,-0.414C0.247,-0.405 0.234,-0.392 0.225,-0.376C0.216,-0.359 0.212,-0.339 0.212,-0.315Z" style="fill:white;fill-rule:nonzero;"/>
                </g>
                <g transform="matrix(84.0692,0,0,84.0692,283.561,157.499)">
                    <path d="M0.35,-0.545L0.35,-0.432L0.022,-0.432L0.022,-0.545L0.35,-0.545ZM0.097,-0.676L0.248,-0.676L0.248,-0.168C0.248,-0.154 0.25,-0.143 0.254,-0.135C0.259,-0.127 0.265,-0.122 0.272,-0.119C0.28,-0.116 0.289,-0.114 0.299,-0.114C0.306,-0.114 0.313,-0.115 0.32,-0.116C0.327,-0.118 0.333,-0.119 0.337,-0.119L0.36,-0.007C0.353,-0.004 0.342,-0.002 0.328,0.002C0.315,0.005 0.298,0.007 0.278,0.007C0.242,0.009 0.21,0.004 0.183,-0.007C0.155,-0.018 0.134,-0.036 0.119,-0.059C0.104,-0.082 0.096,-0.112 0.097,-0.148L0.097,-0.676Z" style="fill:white;fill-rule:nonzero;"/>
                </g>
                <g transform="matrix(84.0692,0,0,84.0692,317.176,157.499)">
                    <rect x="0.06" y="-0.727" width="0.151" height="0.727" style="fill:white;fill-rule:nonzero;"/>
                </g>
                <g transform="matrix(84.0692,0,0,84.0692,340.045,157.499)">
                    <path d="M0.154,0.203C0.135,0.203 0.117,0.202 0.1,0.199C0.083,0.196 0.069,0.192 0.059,0.188L0.093,0.075C0.119,0.083 0.142,0.085 0.16,0.081C0.179,0.078 0.193,0.063 0.204,0.039L0.213,0.016L0.017,-0.545L0.176,-0.545L0.289,-0.145L0.295,-0.145L0.409,-0.545L0.569,-0.545L0.357,0.059C0.347,0.088 0.333,0.113 0.316,0.135C0.298,0.157 0.276,0.174 0.25,0.186C0.223,0.198 0.191,0.203 0.154,0.203Z" style="fill:white;fill-rule:nonzero;"/>
                </g>
            </g>
            <g transform="matrix(0.868056,0,0,1.30208,0,0)">
                <path d="M608.631,322.701L671.225,351.499L610.63,384.296L608.631,322.701Z" style="fill:white;"/>
                <path d="M381.693,379.068C388.141,373.243 416.765,348.42 445.164,332.535C462.96,322.581 480.465,315.738 491.346,320.696C493.567,321.7 494.458,323.744 494.939,326.171C495.51,329.053 495.4,332.455 495.1,336.106C494.118,348.071 491.194,362.247 494.339,371.998C496.312,378.117 500.308,382.819 507.476,385.252C513.452,387.283 519.19,387.164 524.772,385.852C535.493,383.332 545.543,375.54 555.671,372.044C566.613,368.26 577.456,365.464 588.47,363.547C599.451,361.636 610.6,360.627 622.187,360.407C626.22,360.276 629.389,356.895 629.258,352.861C629.127,348.828 625.746,345.659 621.712,345.79C609.395,346.356 597.566,347.751 585.942,350.098C574.298,352.449 562.86,355.726 551.345,360.058C542.87,363.253 534.557,369.588 525.746,373.102C521.061,374.971 516.212,376 511.007,374.386C505.241,372.597 503.925,367.498 503.62,361.658C503.044,350.667 506.112,337.141 504.985,327.46C504.138,320.185 501.235,314.707 495.021,312.161C484.641,307.952 469.506,311.658 453.43,319.817C440.245,326.508 426.321,335.986 413.918,345.211C396.443,358.208 382.027,370.71 377.694,374.705C376.49,375.808 376.409,377.682 377.512,378.886C378.616,380.09 380.489,380.171 381.693,379.068Z" style="fill:white;"/>
            </g>
        </g>
    </g>
</svg>
