<?xml version="1.0" standalone="no"?>
<!DOCTYPE svg PUBLIC "-//W3C//DTD SVG 20010904//EN" "http://www.w3.org/TR/2001/REC-SVG-20010904/DTD/svg10.dtd">
<!-- Created using Krita: https://krita.org -->
<svg xmlns="http://www.w3.org/2000/svg" 
    xmlns:xlink="http://www.w3.org/1999/xlink"
    xmlns:krita="http://krita.org/namespaces/svg/krita"
    xmlns:sodipodi="http://sodipodi.sourceforge.net/DTD/sodipodi-0.dtd"
    width="360pt"
    height="360pt"
    viewBox="0 0 360 360">
<defs/>
<path id="shape0" transform="matrix(1.09280691523914 0.14096330323712 -0.14096330323712 1.09280691523914 144.44514403928 -12.6588671411608)" fill="none" stroke="context-fill" stroke-width="16" stroke-linecap="round" stroke-linejoin="round" d="M178.386 3.07353C146.378 -17.9617 111.597 75.0117 76.5504 98.806C62.5439 108.316 44.533 105.049 22.5177 89.0074C12.3288 103.903 9.91736 107.585 0 122.317L134.284 210.778C144.25 194.981 147.685 189.65 155.469 177.318C138.335 168.162 123.797 150.198 126.306 131.354C130.499 99.8499 211.355 24.741 178.386 3.07353Z" sodipodi:nodetypes="csccccss"/><path id="shape1" transform="matrix(1.09700782217594 0.103302686019305 -0.103302686019305 1.09700782217594 31.0615199912373 128.567442200025)" fill="none" stroke="context-fill" stroke-width="16" stroke-linecap="round" stroke-linejoin="round" d="M74.3968 0L0 82.3862L21.5975 85.6447L27.2059 101.604L67.684 79.1257L58.8859 125.604L86.9048 126.692L95.3659 145.284L125.605 129.059L121.286 160.644L143.247 163.805L155.256 184.521L205.764 92.5611C168.084 67.219 124.295 36.3653 74.3968 0Z" sodipodi:nodetypes="cccccccccccccc"/><ellipse id="shape2" transform="matrix(0.839315524804458 0.713895690333127 -0.713895690333127 0.839315524804458 316.126454105141 24.5067074059153)" rx="10.0101219836453" ry="9.71279162769544" cx="10.0101219836453" cy="9.71279162769544" fill="none" stroke="context-fill" stroke-width="7" stroke-linecap="square" stroke-linejoin="bevel"/>
</svg>
